<?xml version="1.0" encoding="UTF-8" standalone="no"?>
<svg 
  version="1.1" 
  xmlns="http://www.w3.org/2000/svg" 
  xmlns:xlink="http://www.w3.org/1999/xlink" 
  xmlns:svg="http://www.w3.org/2000/svg"
  xmlns:rdf="http://www.w3.org/1999/02/22-rdf-syntax-ns#"
  xmlns:cc="http://creativecommons.org/ns#"
  xmlns:dc="http://purl.org/dc/elements/1.1/"
  viewBox="0 0 768 768"
  width="768"
  height="768"
>
<style>svg {background-color: white; }</style>"
<metadata id="metadata1">
Created by https://svgstud.io and licensed under CC-BY-SA 4.0 license. Please attribute https://svgstud.io
</metadata>
<metadata id="prompt">
maps and routes
</metadata>
<metadata id="version">
7
</metadata>
<metadata id="metadata2">
<rdf:RDF>
<cc:Work
    rdf:about="">
    <cc:license
    rdf:resource="http://creativecommons.org/licenses/by-sa/4.0/" />
    <dc:creator>
        <cc:Agent>
            <dc:title>https://svgstud.io</dc:title>
        </cc:Agent>
    </dc:creator>
</cc:Work>
<cc:License
    rdf:about="http://creativecommons.org/licenses/by-sa/4.0/">
    <cc:permits
    rdf:resource="http://creativecommons.org/ns#Reproduction" />
    <cc:permits
    rdf:resource="http://creativecommons.org/ns#Distribution" />
    <cc:requires
    rdf:resource="http://creativecommons.org/ns#Notice" />
    <cc:requires
    rdf:resource="http://creativecommons.org/ns#Attribution" />
    <cc:permits
    rdf:resource="http://creativecommons.org/ns#DerivativeWorks" />
    <cc:requires
    rdf:resource="http://creativecommons.org/ns#ShareAlike" />
</cc:License>
</rdf:RDF>
</metadata>
<metadata id="uid">
648a73d1a0b5c9c678b4fec3d04b6701cb1a9cb71f74d78eff32b95734e9d109
</metadata>
<path stroke="none" fill="black" fill-rule="evenodd" d="M268.28,577.90C265.65,577.84 261.93,577.30 260.01,576.68C258.09,576.07 254.66,573.72 252.39,571.45C249.79,568.85 247.62,565.38 246.53,562.08C245.31,558.41 244.91,554.71 245.18,549.67C245.51,543.73 246.57,540.10 251.38,528.50C254.58,520.80 258.39,511.19 259.85,507.14C262.50,499.79 262.50,499.79 257.50,495.70C254.75,493.45 248.00,487.08 242.50,481.53C237.00,475.98 229.66,467.28 226.18,462.20C222.71,457.12 217.45,447.91 214.50,441.73C211.55,435.55 207.99,426.90 206.59,422.50C205.19,418.10 203.38,411.29 202.56,407.36C201.74,403.43 200.55,394.12 199.91,386.66C199.02,376.35 199.01,370.16 199.90,360.80C200.53,354.04 201.93,344.33 203.00,339.23C204.07,334.13 206.31,325.89 207.98,320.91C209.64,315.94 212.81,308.09 215.01,303.47C217.22,298.85 222.12,290.45 225.91,284.79C229.70,279.13 235.99,271.01 239.89,266.74C243.79,262.47 249.84,256.40 253.32,253.24C256.81,250.08 263.90,244.44 269.08,240.71C274.26,236.97 284.80,230.81 292.50,227.01C300.38,223.13 311.56,218.59 318.07,216.63C324.43,214.71 333.20,212.47 337.57,211.65C341.93,210.82 351.12,209.62 358.00,208.98C365.04,208.33 375.09,208.11 381.00,208.48C386.77,208.83 395.77,209.79 401.00,210.59C406.23,211.40 414.77,213.20 420.00,214.61C425.23,216.02 434.02,218.93 439.55,221.08C445.08,223.23 454.53,227.81 460.55,231.26C466.57,234.70 474.88,240.02 479.00,243.08C483.12,246.14 490.45,252.39 495.29,256.97C500.12,261.54 507.12,269.16 510.84,273.89C514.56,278.63 519.05,284.61 520.81,287.19C522.57,289.77 526.66,297.20 529.90,303.69C533.14,310.19 537.20,319.95 538.94,325.39C540.67,330.83 542.96,340.44 544.04,346.74C545.40,354.70 546.00,362.87 546.00,373.50C546.00,384.26 545.40,392.29 543.99,400.55C542.89,407.01 540.45,416.84 538.58,422.40C536.71,427.95 533.29,436.55 530.97,441.50C528.66,446.45 523.50,455.45 519.50,461.50C515.51,467.55 508.82,476.41 504.64,481.19C500.46,485.97 493.97,492.49 490.23,495.69C486.49,498.88 480.62,503.52 477.20,506.00C473.77,508.48 466.81,512.91 461.73,515.85C456.66,518.80 448.90,522.70 444.50,524.52C440.10,526.35 431.95,529.19 426.38,530.84C420.82,532.49 410.47,534.85 403.38,536.09C393.50,537.81 386.65,538.33 374.00,538.31C363.33,538.30 353.97,537.71 347.50,536.63C342.00,535.71 331.56,533.36 324.31,531.40C317.05,529.45 310.08,527.99 308.81,528.17C306.98,528.43 305.36,530.78 301.00,539.51C297.98,545.57 293.50,554.71 291.05,559.83C288.32,565.54 285.26,570.32 283.12,572.20C281.21,573.88 278.16,575.87 276.35,576.63C274.55,577.38 270.91,577.95 268.28,577.90zM378.50,509.37C385.10,509.13 394.90,508.03 400.27,506.94C405.65,505.85 413.75,503.79 418.27,502.37C422.80,500.95 431.53,497.41 437.68,494.50C443.83,491.59 452.97,486.39 457.99,482.95C463.01,479.51 470.50,473.54 474.63,469.69C478.76,465.83 484.73,459.48 487.89,455.59C491.06,451.69 495.47,445.80 497.69,442.50C499.91,439.20 503.31,433.35 505.25,429.50C507.18,425.65 509.92,418.84 511.33,414.37C512.74,409.90 514.67,402.25 515.62,397.37C516.71,391.75 517.34,383.74 517.34,375.50C517.33,367.89 516.66,358.77 515.71,353.50C514.81,348.55 512.93,340.45 511.52,335.50C510.11,330.55 506.27,321.10 502.99,314.50C499.72,307.90 494.69,299.35 491.83,295.50C488.97,291.65 481.42,283.27 475.06,276.87C468.20,269.97 460.24,263.12 455.50,260.03C451.10,257.16 443.41,252.85 438.41,250.44C433.41,248.04 425.31,244.73 420.41,243.10C415.51,241.46 407.45,239.41 402.50,238.53C397.55,237.65 388.06,236.66 381.42,236.32C373.67,235.93 368.66,236.09 367.45,236.77C366.21,237.46 365.53,239.02 365.45,241.38C365.37,243.59 363.87,247.31 361.46,251.22C359.33,254.67 351.59,265.98 344.25,276.33C336.91,286.69 328.34,299.03 325.20,303.75C319.50,312.33 319.50,312.33 319.65,320.42C319.73,324.86 320.76,334.12 321.94,341.00C323.12,347.88 326.56,364.07 329.57,377.00C332.59,389.93 335.76,402.98 336.61,406.00C337.46,409.02 339.28,414.03 340.66,417.12C342.03,420.21 344.46,423.70 346.05,424.88C347.63,426.05 353.63,428.82 359.36,431.04C365.10,433.26 371.68,436.43 373.98,438.10C376.64,440.03 378.93,442.85 380.25,445.82C382.03,449.85 382.45,453.78 383.31,474.13C383.86,487.13 384.03,498.49 383.68,499.38C383.19,500.68 381.55,501.00 375.50,501.00C370.34,501.00 367.80,500.60 367.51,499.75C367.28,499.06 366.67,489.91 366.15,479.40C365.46,465.45 364.78,459.48 363.63,457.25C362.76,455.57 360.55,453.26 358.71,452.13C356.88,451.00 352.17,448.76 348.26,447.17C344.35,445.58 338.89,442.62 336.12,440.59C333.36,438.56 329.28,434.18 327.06,430.85C324.84,427.52 322.16,422.03 321.12,418.65C320.08,415.27 317.41,404.62 315.19,395.00C312.97,385.38 310.20,372.23 309.04,365.79C307.87,359.35 305.88,345.95 304.61,336.02C303.34,326.09 302.00,317.67 301.64,317.31C301.29,316.95 299.83,317.75 298.40,319.08C296.98,320.41 295.12,322.84 294.27,324.47C293.03,326.85 292.85,329.49 293.36,337.87C293.71,343.61 294.92,354.65 296.05,362.40C297.18,370.16 299.42,383.25 301.04,391.50C302.65,399.75 305.15,410.55 306.58,415.50C308.02,420.45 310.73,427.65 312.62,431.50C314.53,435.39 318.49,441.06 321.53,444.25C324.54,447.41 326.97,450.56 326.94,451.25C326.91,451.94 322.96,459.70 318.17,468.50C311.32,481.10 308.99,484.57 307.21,484.82C305.97,485.00 302.10,483.55 298.62,481.60C295.14,479.66 288.96,475.52 284.89,472.42C280.83,469.31 275.33,464.68 272.68,462.13C270.03,459.59 265.47,454.57 262.55,451.00C259.63,447.43 255.16,440.63 252.61,435.91C250.07,431.18 246.82,423.98 245.40,419.91C243.97,415.83 241.94,408.68 240.87,404.00C239.67,398.70 238.71,389.66 238.34,380.00C237.89,368.17 238.14,361.83 239.41,353.24C240.32,347.04 242.21,338.04 243.60,333.24C244.99,328.44 247.85,320.84 249.96,316.35C252.06,311.86 255.88,304.94 258.45,300.97C261.02,297.00 267.69,289.06 273.26,283.33C278.84,277.59 286.58,270.48 290.45,267.52C294.33,264.56 301.41,259.70 306.19,256.71C310.97,253.71 319.74,249.15 325.69,246.55C331.64,243.96 336.95,241.38 337.50,240.82C338.18,240.12 337.06,240.02 334.00,240.50C331.52,240.90 325.23,242.57 320.00,244.21C314.77,245.86 307.21,248.72 303.20,250.57C299.18,252.41 293.11,255.59 289.70,257.64C286.29,259.68 279.80,264.27 275.27,267.82C270.74,271.38 264.25,277.49 260.85,281.40C257.44,285.30 252.26,292.17 249.32,296.66C246.39,301.15 242.18,308.35 239.96,312.66C237.75,316.97 234.78,324.29 233.36,328.93C231.93,333.56 229.91,341.43 228.87,346.43C227.82,351.42 226.69,361.57 226.36,369.00C225.92,378.98 226.20,385.61 227.44,394.42C228.36,400.97 230.49,410.65 232.18,415.92C233.86,421.19 237.17,429.34 239.52,434.02C241.87,438.71 246.46,446.14 249.73,450.52C252.99,454.91 259.97,462.61 265.24,467.62C270.50,472.64 278.57,479.23 283.16,482.27C287.75,485.30 295.55,489.80 300.50,492.27C305.45,494.73 312.78,497.93 316.79,499.37C320.80,500.81 328.45,503.08 333.79,504.42C339.13,505.76 347.10,507.34 351.50,507.93C355.90,508.52 361.07,509.18 363.00,509.41C364.93,509.63 371.90,509.62 378.50,509.37zM349.00,498.62C348.18,498.72 343.09,497.79 337.70,496.55C332.31,495.32 327.44,493.84 326.88,493.28C326.17,492.57 328.24,487.43 333.42,476.96C337.59,468.54 341.00,461.08 341.00,460.37C341.00,459.65 341.79,458.66 342.75,458.15C343.71,457.65 345.47,457.60 346.66,458.05C348.45,458.73 348.94,459.96 349.49,465.19C349.85,468.66 350.23,477.56 350.33,484.97C350.47,496.29 350.26,498.47 349.00,498.62zM468.00,468.31C465.52,468.57 459.00,468.41 453.50,467.94C448.00,467.48 440.57,466.60 437.00,465.99C433.43,465.39 428.54,463.95 426.14,462.80C422.90,461.25 421.29,459.65 419.91,456.61C418.23,452.90 418.04,449.63 418.02,423.19C418.01,403.96 418.40,392.27 419.18,389.19C420.07,385.65 421.72,383.13 425.93,378.93C428.99,375.87 433.98,372.20 437.00,370.78C440.02,369.35 445.12,367.70 448.33,367.11C451.54,366.52 466.34,364.43 481.23,362.47C498.47,360.20 508.65,359.25 509.26,359.86C509.78,360.38 510.45,363.74 510.74,367.30C511.20,373.02 511.03,373.92 509.30,374.84C508.23,375.41 495.65,377.70 481.35,379.91C466.41,382.22 452.98,384.84 449.76,386.07C446.68,387.25 442.78,389.56 441.11,391.20C439.41,392.86 437.76,395.74 437.40,397.69C437.04,399.62 436.94,410.82 437.20,422.58C437.59,440.98 437.89,444.22 439.37,445.86C440.33,446.92 443.62,448.24 446.80,448.86C449.93,449.46 457.90,450.43 464.50,451.01C471.10,451.59 477.96,452.30 479.75,452.58C482.19,452.96 483.00,453.60 483.00,455.14C483.00,456.27 482.07,458.50 480.93,460.10C479.79,461.70 477.43,464.09 475.68,465.41C473.85,466.80 470.59,468.03 468.00,468.31zM469.34,438.00C468.61,438.00 467.55,437.21 466.99,436.25C466.42,435.29 464.73,432.02 463.23,429.00C461.32,425.15 458.92,422.33 455.24,419.60C452.34,417.45 450.24,415.43 450.56,415.10C450.89,414.78 453.71,414.28 456.83,414.01C462.50,413.50 462.50,413.50 466.37,405.75C468.49,401.49 470.79,398.00 471.48,398.00C472.17,398.00 474.18,401.32 475.95,405.38C479.16,412.76 479.16,412.76 483.63,413.26C486.09,413.54 488.41,414.08 488.80,414.47C489.18,414.85 488.15,416.28 486.50,417.65C484.85,419.01 481.65,421.92 479.40,424.11C477.14,426.31 474.25,430.33 472.98,433.05C471.70,435.77 470.06,438.00 469.34,438.00zM448.50,349.44C444.10,349.66 437.80,349.47 434.50,349.00C431.20,348.54 417.25,345.25 403.50,341.69C389.75,338.13 372.20,333.76 364.50,331.98C356.80,330.21 349.30,328.14 347.84,327.40C346.37,326.65 344.19,324.79 342.99,323.27C341.29,321.11 340.91,319.58 341.27,316.32C341.64,312.98 345.34,306.66 359.71,284.82C369.60,269.79 379.57,254.26 381.86,250.30C384.15,246.34 386.41,242.87 386.87,242.58C387.33,242.30 390.58,242.53 394.09,243.09C397.61,243.66 401.61,244.66 402.99,245.32C404.86,246.21 405.58,247.42 405.80,250.09C406.01,252.62 405.12,255.55 402.71,260.17C400.84,263.75 392.67,276.75 384.55,289.06C373.33,306.07 370.02,311.80 370.74,312.96C371.36,313.93 377.19,315.60 387.10,317.65C395.57,319.39 410.15,322.95 419.50,325.55C432.73,329.23 438.69,330.39 446.36,330.76C451.79,331.03 463.42,330.69 472.21,330.01C481.25,329.32 488.57,329.17 489.06,329.66C489.53,330.13 490.49,333.81 491.18,337.82C492.17,343.62 492.17,345.28 491.19,345.88C490.51,346.30 482.43,347.19 473.23,347.84C464.03,348.50 452.90,349.22 448.50,349.44zM465.50,315.44C462.03,315.91 460.12,315.73 459.25,314.86C458.56,314.17 458.00,311.24 458.00,308.36C458.00,305.48 457.61,302.88 457.14,302.59C456.66,302.29 448.94,301.15 439.97,300.06C431.00,298.96 423.20,297.60 422.64,297.04C421.97,296.37 421.94,295.15 422.56,293.53C423.07,292.17 427.73,286.30 432.91,280.50C438.08,274.69 442.80,270.10 443.40,270.30C443.99,270.50 446.61,274.87 449.22,280.02C451.83,285.17 454.57,290.00 455.33,290.75C456.48,291.91 457.25,291.04 460.33,285.20C462.33,281.39 464.57,277.77 465.31,277.16C466.37,276.28 467.49,277.24 470.58,281.73C472.74,284.86 476.30,288.64 478.50,290.13C480.70,291.62 482.50,293.62 482.50,294.57C482.50,295.68 481.11,296.78 478.61,297.65C476.46,298.39 474.10,299.50 473.36,300.12C472.48,300.85 472.00,303.47 472.00,307.56C472.00,311.04 471.66,314.08 471.25,314.33C470.84,314.57 468.25,315.07 465.50,315.44z" />

</svg>